<?xml version="1.0" encoding="UTF-8" standalone="no"?>
<!DOCTYPE svg PUBLIC "-//W3C//DTD SVG 1.1//EN"
 "http://www.w3.org/Graphics/SVG/1.1/DTD/svg11.dtd">
<!-- Generated by graphviz version 8.0.5 (20230430.1635)
 -->
<!-- Pages: 1 -->
<svg width="235pt" height="578pt"
 viewBox="0.00 0.00 234.50 577.50" xmlns="http://www.w3.org/2000/svg" xmlns:xlink="http://www.w3.org/1999/xlink">
<g id="graph0" class="graph" transform="scale(1 1) rotate(0) translate(4 573.5)">
<polygon fill="white" stroke="none" points="-4,4 -4,-573.5 230.5,-573.5 230.5,4 -4,4"/>
<!-- Synchro0 -->
<g id="node1" class="node">
<title>Synchro0</title>
<polygon fill="#8b0000" stroke="black" points="81,-531.32 81,-553.68 65.18,-569.5 42.82,-569.5 27,-553.68 27,-531.32 42.82,-515.5 65.18,-515.5 81,-531.32"/>
<text text-anchor="middle" x="54" y="-537.45" font-family="Times,serif" font-size="14.00" fill="#ffffff">main</text>
</g>
<!-- 1 -->
<g id="node2" class="node">
<title>1</title>
<ellipse fill="#0000ff" stroke="black" cx="27" cy="-469.5" rx="27" ry="27"/>
<text text-anchor="middle" x="27" y="-464.45" font-family="Times,serif" font-size="14.00" fill="#ffffff">1</text>
</g>
<!-- Synchro0&#45;&gt;1 -->
<g id="edge1" class="edge">
<title>Synchro0&#45;&gt;1</title>
<path fill="none" stroke="black" d="M43.95,-515.06C42.76,-511.93 41.53,-508.7 40.3,-505.47"/>
<polygon fill="black" stroke="black" points="43.26,-504.42 36.44,-496.31 36.72,-506.9 43.26,-504.42"/>
</g>
<!-- Synchro1 -->
<g id="node7" class="node">
<title>Synchro1</title>
<polygon fill="#ff0000" stroke="black" points="82,-15.82 82,-38.18 66.18,-54 43.82,-54 28,-38.18 28,-15.82 43.82,0 66.18,0 82,-15.82"/>
<text text-anchor="middle" x="55" y="-21.95" font-family="Times,serif" font-size="14.00" fill="#ffffff">sync</text>
</g>
<!-- Synchro0&#45;&gt;Synchro1 -->
<g id="edge6" class="edge">
<title>Synchro0&#45;&gt;Synchro1</title>
<path fill="none" stroke="black" d="M68.33,-518.08C75.22,-504.66 82,-487.2 82,-470.5 82,-470.5 82,-470.5 82,-114.5 82,-97.24 77.04,-78.9 71.38,-63.56"/>
<polygon fill="black" stroke="black" points="74.32,-62.49 67.39,-54.47 67.81,-65.06 74.32,-62.49"/>
</g>
<!-- 2 -->
<g id="node3" class="node">
<title>2</title>
<ellipse fill="#0000ff" stroke="black" cx="27" cy="-381" rx="27" ry="27"/>
<text text-anchor="middle" x="27" y="-375.95" font-family="Times,serif" font-size="14.00" fill="#ffffff">2</text>
</g>
<!-- 1&#45;&gt;2 -->
<g id="edge2" class="edge">
<title>1&#45;&gt;2</title>
<path fill="none" stroke="black" d="M27,-442.08C27,-434.87 27,-426.92 27,-419.23"/>
<polygon fill="black" stroke="black" points="30.5,-419.26 27,-409.26 23.5,-419.26 30.5,-419.26"/>
<text text-anchor="middle" x="40.5" y="-420.2" font-family="Times,serif" font-size="14.00">d1v2</text>
</g>
<!-- 3 -->
<g id="node4" class="node">
<title>3</title>
<ellipse fill="#0000ff" stroke="black" cx="27" cy="-292.5" rx="27" ry="27"/>
<text text-anchor="middle" x="27" y="-287.45" font-family="Times,serif" font-size="14.00" fill="#ffffff">3</text>
</g>
<!-- 2&#45;&gt;3 -->
<g id="edge3" class="edge">
<title>2&#45;&gt;3</title>
<path fill="none" stroke="black" d="M27,-353.58C27,-346.37 27,-338.42 27,-330.73"/>
<polygon fill="black" stroke="black" points="30.5,-330.76 27,-320.76 23.5,-330.76 30.5,-330.76"/>
<text text-anchor="middle" x="40.5" y="-331.7" font-family="Times,serif" font-size="14.00">d1v3</text>
</g>
<!-- 4 -->
<g id="node5" class="node">
<title>4</title>
<ellipse fill="#0000ff" stroke="black" cx="27" cy="-204" rx="27" ry="27"/>
<text text-anchor="middle" x="27" y="-198.95" font-family="Times,serif" font-size="14.00" fill="#ffffff">4</text>
</g>
<!-- 3&#45;&gt;4 -->
<g id="edge4" class="edge">
<title>3&#45;&gt;4</title>
<path fill="none" stroke="black" d="M27,-265.08C27,-257.87 27,-249.92 27,-242.23"/>
<polygon fill="black" stroke="black" points="30.5,-242.26 27,-232.26 23.5,-242.26 30.5,-242.26"/>
<text text-anchor="middle" x="40.5" y="-243.2" font-family="Times,serif" font-size="14.00">d1v4</text>
</g>
<!-- 5 -->
<g id="node6" class="node">
<title>5</title>
<ellipse fill="#0000ff" stroke="black" cx="27" cy="-115.5" rx="27" ry="27"/>
<text text-anchor="middle" x="27" y="-110.45" font-family="Times,serif" font-size="14.00" fill="#ffffff">5</text>
</g>
<!-- 4&#45;&gt;5 -->
<g id="edge5" class="edge">
<title>4&#45;&gt;5</title>
<path fill="none" stroke="black" d="M27,-176.58C27,-169.37 27,-161.42 27,-153.73"/>
<polygon fill="black" stroke="black" points="30.5,-153.76 27,-143.76 23.5,-153.76 30.5,-153.76"/>
<text text-anchor="middle" x="40.5" y="-154.7" font-family="Times,serif" font-size="14.00">d1v5</text>
</g>
<!-- 5&#45;&gt;Synchro1 -->
<g id="edge7" class="edge">
<title>5&#45;&gt;Synchro1</title>
<path fill="none" stroke="black" d="M33.33,-88.92C35.07,-82.41 37.07,-75.35 40.68,-64.42"/>
<polygon fill="black" stroke="black" points="44.23,-65.85 44.12,-55.25 37.6,-63.6 44.23,-65.85"/>
<text text-anchor="middle" x="54.5" y="-66.2" font-family="Times,serif" font-size="14.00">d1v7</text>
</g>
<!-- key -->
<g id="node8" class="node">
<title>key</title>
<polygon fill="none" stroke="black" points="107.5,-531.25 107.5,-553.75 208.75,-553.75 208.75,-531.25 107.5,-531.25"/>
<text text-anchor="start" x="110.5" y="-537.45" font-family="Times,serif" font-size="14.00">simple.increment</text>
<polygon fill="#0000ff" stroke="none" points="208.75,-531.25 208.75,-553.75 218.5,-553.75 218.5,-531.25 208.75,-531.25"/>
<polygon fill="none" stroke="black" points="208.75,-531.25 208.75,-553.75 218.5,-553.75 218.5,-531.25 208.75,-531.25"/>
<text text-anchor="start" x="211.75" y="-537.45" font-family="Times,serif" font-size="14.00"> </text>
</g>
</g>
</svg>
